<?xml version="1.0" encoding="utf-8"?>
<!-- Generator: Adobe Illustrator 17.1.0, SVG Export Plug-In . SVG Version: 6.00 Build 0)  -->
<!DOCTYPE svg PUBLIC "-//W3C//DTD SVG 1.1//EN" "http://www.w3.org/Graphics/SVG/1.1/DTD/svg11.dtd">
<svg version="1.1" id="Layer_1" xmlns="http://www.w3.org/2000/svg" xmlns:xlink="http://www.w3.org/1999/xlink" x="0px" y="0px"
	 viewBox="0 0 900 234" enable-background="new 0 0 900 234" xml:space="preserve">
<path fill="#283277" d="M0,0c0,0,16.6,28.4,34.6,28.4S69.2,0,69.2,0s16.5,28.4,34.6,28.4S138.5,0,138.5,0s17.6,28.4,34.6,28.4
	S207.7,0,207.7,0s17.5,28.4,34.6,28.4S276.9,0,276.9,0s14,28.4,34.6,28.4c20.6,0,34.6-28.4,34.6-28.4s12.8,28.4,34.6,28.4
	c21.9,0,34.6-28.4,34.6-28.4s14.9,28.4,34.6,28.4S484.6,0,484.6,0s14.8,28.4,34.6,28.4C539,28.4,553.8,0,553.8,0
	s12.5,28.4,34.6,28.4c22.1,0,34.6-28.4,34.6-28.4s18.1,28.4,34.6,28.4S692.3,0,692.3,0s15.7,28.4,34.6,28.4
	c18.9,0,34.6-28.4,34.6-28.4s16.8,28.4,34.6,28.4C814,28.4,830.8,0,830.8,0s15.5,28.4,34.6,28.4C884.5,28.4,900,0,900,0v234H0V0z"/>
</svg>
